<svg width="33" height="19" viewBox="0 0 33 19" fill="none" xmlns="http://www.w3.org/2000/svg">
<path fill-rule="evenodd" clip-rule="evenodd" d="M22.6368 0.371716C22.9838 0.0158072 23.5536 0.00856832 23.9095 0.355547L32.6282 8.85555C32.802 9.02494 32.9 9.25732 32.9 9.49998C32.9 9.74263 32.802 9.97501 32.6282 10.1444L23.9095 18.6444C23.5536 18.9914 22.9838 18.9841 22.6368 18.6282C22.2898 18.2723 22.2971 17.7025 22.653 17.3555L29.7875 10.4H0.999976C0.502919 10.4 0.0999756 9.99703 0.0999756 9.49998C0.0999756 9.00292 0.502919 8.59998 0.999976 8.59998H29.7875L22.653 1.64441C22.2971 1.29743 22.2898 0.727624 22.6368 0.371716Z" fill="white"/>
</svg>
